PathFileType	4	(X/Y/Z)	C:/Users/beibeiliu/ov580/test_trc/User2\sequence.13_training_dense_right.trc
DataRate	CameraRate	NumFrames	NumMarkers	Units	OrigDataRate	OrigDataStartFrame	OrigNumFrames
120	120	10	19	mm	120	85	336
Frame#	Time	ThumbCMC			ThumbMCP			ThumbIP			ThumbTip			IndexMCP			IndexPIP			IndexTip			MiddleMCP			MiddlePIP			MiddleTip			RingMCP			RingPIP			RingTip			PinkyMCP			PinkyPIP			PinkyTip			BackHand1			BackHand2			BackHand3	
		X0	Y0	Z0	X1	Y1	Z1	X2	Y2	Z2	X3	Y3	Z3	X4	Y4	Z4	X5	Y5	Z5	X6	Y6	Z6	X7	Y7	Z7	X8	Y8	Z8	X9	Y9	Z9	X10	Y10	Z10	X11	Y11	Z11	X12	Y12	Z12	X13	Y13	Z13	X14	Y14	Z14	X15	Y15	Z15	X16	Y16	Z16	X17	Y17	Z17	X18	Y18	Z18	
84	0.7	50.645	-14.334	110.139	29.0807	-29.0394	84.4994	12.193	-40.5405	53.6413	21.1275	-46.6512	29.4179	47.2456	37.6664	45.6076	37.3743	39.8347	13.4885	24.9657	16.0907	-7.24768	77.4249	33.251	30.4217	70.5832	33.9449	-9.41123	58.8491	4.93524	-31.5705	84.8715	5.21369	14.8588	76.7771	-21.7639	-0.055889	64.7941	-39.2099	30.1166	106.112	-17.4332	24.217	86.7121	-46.4194	19.9085	79.6273	-43.9772	51.27	107.032	11.3422	73.9957	120.588	3.59391	105.305	84.1843	15.4025	99.0314	
85	0.708333	58.252	-12.935	101.578	37.1678	-28.8448	77.5049	27.2765	-39.4461	45.5964	31.1131	-47.4543	19.6161	66.462	34.6085	38.7488	58.913	41.687	6.03166	49.4367	17.4962	-18.6528	94.0263	34.7365	22.2484	95.4004	32.2204	-11.5524	81.4583	1.75798	-37.4052	108.14	0.546119	11.2108	93.9164	-21.2586	-2.70566	85.5595	-43.3623	27.5879	120.559	-22.259	20.9058	102.532	-48.0853	19.7036	93.326	-43.0111	52.67	120.221	8.88299	76.025	128.747	0.390925	108.888	94.6992	14.1604	99.5678	
86	0.716667	68.8296	-10.9413	92.6314	49.8138	-28.508	69.1335	39.9792	-39.6023	34.1992	47.9707	-50.0722	10.4347	90.9914	34.8162	27.3793	89.7085	38.7747	-1.81721	85.1478	14.0344	-31.4612	122.48	29.3374	19.417	126.46	25.0947	-18.3915	114.019	-5.68487	-40.7741	133.488	-5.58763	8.19439	118.334	-29.8542	-3.21957	102.53	-43.1633	27.2174	142.845	-27.9023	23.9982	120.528	-51.9401	21.6969	107.665	-48.4033	49.9812	137.642	6.36419	72.5239	141.489	3.24173	108.174	107.013	17.0399	91.0914	
87	0.725	82.1132	-10.9835	88.177	66.4674	-27.5391	57.5223	56.4484	-42.2372	26.3567	68.196	-52.836	1.58399	113.596	29.9813	20.5047	114.063	33.669	-9.40256	108.852	15.4025	-37.6395	143.319	25.7389	14.0183	148.644	20.1705	-19.9313	145.747	-10.1108	-42.4845	153.188	-10.6208	9.00165	142.859	-38.4439	-2.0181	122.855	-49.333	25.0886	163.344	-35.6238	27.0327	139.702	-57.4398	25.5984	124.372	-52.1037	55.0833	154.779	5.23603	74.505	150.805	1.29473	105.669	119.888	14.2398	89.2695	
88	0.733333	89.1635	-11.2255	86.0993	71.9142	-29.8555	56.9616	68.3331	-44.8031	27.3719	80.299	-57.311	3.78785	125.634	24.7945	17.7776	129.76	27.3641	-16.47	125.06	7.00327	-42.8793	158.76	20.46	14.3274	166.479	14.8568	-18.5118	161.132	-14.8255	-44.4807	163.008	-14.7796	9.23875	153.277	-42.9357	0.0131389	135.323	-54.4993	30.908	172.854	-35.8928	29.8678	150.551	-62.9021	29.7868	132.449	-53.1354	57.7938	160.09	3.95426	70.5007	155.524	3.77183	104.4	126.254	15.8137	84.9832	
89	0.741667	93.7821	-10.3832	79.5932	77.9241	-31.2182	57.3737	70.6905	-48.3454	26.0064	82.123	-62.3337	7.47139	129.074	21.1868	14.6421	131.008	23.3099	-16.4178	136.54	-0.489374	-44.096	162.244	16.1605	14.3546	171.19	9.05034	-22.1512	166.607	-22.7613	-43.4089	169.665	-18.3875	10.3245	163.319	-46.2243	2.63621	139.567	-55.3267	29.2408	180.256	-40.6148	32.3262	158.033	-63.3494	30.4284	138.998	-58.3743	56.6556	166.822	3.27068	74.2852	161.861	3.78669	105.004	129.053	17.5967	80.4687	
90	0.75	92.4457	-11.28	83.216	76.6311	-32.7556	57.2178	70.866	-51.7483	27.1824	80.3642	-68.0443	7.25344	126.615	18.9875	12.0215	134.145	15.6861	-17.3619	133.178	-6.51542	-41.8425	161.709	12.5113	14.6096	170.398	3.10286	-21.8041	168.706	-28.5325	-39.9946	173.132	-22.1051	14.4736	160.733	-52.5226	6.32249	141.743	-57.7332	36.4648	180.246	-40.8246	34.5343	160.661	-68.3906	36.0708	142.59	-58.4379	58.3089	165.232	3.80913	69.8466	157.709	6.03139	107.984	128.538	17.4534	80.0466	
91	0.758333	94.2708	-11.3985	85.8534	73.4762	-33.1246	61.498	68.1027	-53.8631	39.2765	73.2558	-70.469	15.2554	124.767	13.1746	12.8321	124.738	8.60902	-21.2319	124.637	-16.295	-40.7102	156.419	8.28438	11.081	164.118	-6.50655	-25.1912	158.345	-40.0437	-37.5997	166.289	-26.2514	12.1695	156.965	-58.6026	8.92499	137.592	-60.1276	36.9116	179.198	-44.5739	35.1779	155.39	-69.9861	37.8315	140.508	-59.9736	61.242	164.645	2.95184	68.7929	160.625	6.42615	105.833	127.203	14.9742	83.1885	
92	0.766667	88.4244	-11.7947	89.5464	71.856	-33.4756	70.836	57.6341	-53.8917	46.3428	67.1522	-69.3603	24.661	111.471	10.8204	15.07	110.696	5.33429	-19.0884	110.321	-21.5354	-36.8545	145.483	6.19008	10.8514	147.944	-9.72547	-24.3359	145.434	-44.8399	-32.8278	154.426	-27.9186	12.2723	147.726	-57.0026	6.2295	130.955	-61.5926	43.7761	168.651	-47.9726	30.4188	148.672	-70.5159	34.5304	133.115	-60.066	63.9753	159.755	1.26688	69.6519	159.809	5.24235	106.358	123.831	12.2904	84.8931	
93	0.775	83.1286	-11.5808	97.4269	60.0728	-33.2523	81.2747	46.6874	-51.9543	52.1152	47.8487	-68.8226	31.0967	98.1912	10.8257	21.0546	91.542	7.48931	-11.0902	90.5345	-22.4117	-31.0406	127.83	6.1985	13.8014	131.636	-12.6559	-23.5199	119.294	-47.2874	-30.0164	139.738	-28.7819	11.7618	130.488	-55.9076	7.02198	115.951	-62.114	38.8752	153.9	-46.8386	29.8797	135.559	-72.9327	35.8017	124.747	-61.3391	65.8089	152.825	-0.684936	67.4363	150.862	3.56857	106.815	117.476	14.2634	84.981	
